<svg viewBox="0 0 1200 700" xmlns="http://www.w3.org/2000/svg" role="img" aria-labelledby="title desc">
  <title>Ordenador desmontado</title>
  <desc>Ilustración de un ordenador de sobremesa desmontado con componentes visibles.</desc>
  <rect width="1200" height="700" rx="24" fill="#f8fafc" />
  <rect x="90" y="90" width="460" height="260" rx="18" fill="#111827" opacity="0.95" />
  <rect x="110" y="120" width="420" height="220" rx="14" fill="#374151" />
  <rect x="150" y="150" width="120" height="80" rx="12" fill="#f59e0b" />
  <rect x="160" y="168" width="100" height="20" rx="8" fill="#fbbf24" />
  <rect x="150" y="250" width="190" height="70" rx="12" fill="#10b981" />
  <rect x="390" y="170" width="40" height="140" rx="10" fill="#60a5fa" />
  <rect x="443" y="170" width="40" height="140" rx="10" fill="#60a5fa" />
  <rect x="560" y="130" width="220" height="110" rx="18" fill="#a78bfa" />
  <rect x="590" y="160" width="160" height="70" rx="12" fill="#7c3aed" />
  <rect x="560" y="270" width="220" height="90" rx="18" fill="#94a3b8" />
  <rect x="610" y="300" width="140" height="50" rx="10" fill="#64748b" />
  <rect x="760" y="90" width="250" height="360" rx="20" fill="#e2e8f0" stroke="#cbd5e1" stroke-width="5" />
  <rect x="790" y="130" width="190" height="50" rx="10" fill="#fff" />
  <rect x="815" y="150" width="140" height="10" rx="5" fill="#cbd5e1" />
  <rect x="790" y="200" width="190" height="40" rx="10" fill="#cbd5e1" />
  <rect x="790" y="255" width="190" height="40" rx="10" fill="#cbd5e1" />
  <rect x="790" y="310" width="190" height="90" rx="10" fill="#1f2937" />
  <path d="M340 400c30 10 150 35 210 20" fill="none" stroke="#d1d5db" stroke-width="16" stroke-linecap="round" />
  <rect x="90" y="390" width="250" height="90" rx="20" fill="#e2e8f0" />
  <rect x="110" y="420" width="210" height="20" rx="10" fill="#cbd5e1" />
  <rect x="110" y="450" width="210" height="25" rx="10" fill="#cbd5e1" />
  <rect x="0" y="520" width="400" height="130" fill="#f1f5f9" rx="22" />
  <rect x="40" y="545" width="320" height="70" rx="10" fill="#fff" />
  <rect x="65" y="576" width="95" height="20" rx="8" fill="#cbd5e1" />
  <rect x="65" y="610" width="170" height="20" rx="8" fill="#cbd5e1" />
  <rect x="430" y="520" width="220" height="130" rx="22" fill="#f1f5f9" />
  <rect x="460" y="555" width="160" height="20" rx="8" fill="#cbd5e1" />
  <rect x="460" y="590" width="80" height="20" rx="8" fill="#cbd5e1" />
  <circle cx="205" cy="620" r="24" fill="#f43f5e" />
  <circle cx="260" cy="620" r="24" fill="#3b82f6" />
  <circle cx="315" cy="620" r="24" fill="#10b981" />
  <text x="110" y="95" fill="#f8fafc" font-size="24" font-weight="700">Ordenador desmontado</text>
</svg>
